<svg width="167" height="82" viewBox="0 0 167 82" fill="none" xmlns="http://www.w3.org/2000/svg">
<path d="M116.106 30.4478V41.5292C116.106 43.6162 117.06 45.5562 118.696 47.0259V50.7883C118.696 52.4049 120.196 53.6983 122.071 53.6983C123.946 53.6983 125.446 52.4049 125.446 50.7883V45.6738C125.446 44.7038 124.866 43.7926 123.946 43.2635C123.264 42.8814 122.855 42.2347 122.855 41.5292V30.4478C122.855 26.5678 126.537 23.3933 131.037 23.3933H133.798C138.297 23.3933 141.979 26.5678 141.979 30.4478V41.5292C141.979 42.2347 141.57 42.8814 140.888 43.2635C139.934 43.7926 139.388 44.7038 139.388 45.6738V56.3437C139.388 57.637 140.275 58.8422 141.604 59.4007C143.206 60.0767 151.524 63.6921 159.228 69.13C159.875 69.6003 160.25 70.2763 160.25 71.0406V75.7142H136.593C134.718 75.7142 133.218 77.0075 133.218 78.6242C133.218 80.2408 134.718 81.5341 136.593 81.5341H163.625C165.5 81.5341 167 80.2408 167 78.6242V71.0406C167 68.5421 165.739 66.22 163.489 64.6327C156.705 59.8416 149.444 56.3437 146.138 54.8446V46.9965C147.774 45.5268 148.728 43.5868 148.728 41.4999V30.4184C148.728 23.3051 142.013 17.5439 133.798 17.5439H131.037C122.821 17.5733 116.106 23.3345 116.106 30.4478Z" fill="white"/>
<path d="M3.37477 81.534H30.8161C32.691 81.534 34.1909 80.2407 34.1909 78.6241C34.1909 77.0074 32.691 75.7141 30.8161 75.7141H6.74954V71.0405C6.74954 70.3056 7.12451 69.6002 7.7722 69.1299C15.4421 63.692 23.7938 60.0472 25.396 59.4006C26.7595 58.8421 27.6118 57.6369 27.6118 56.3436V45.6737C27.6118 44.7037 27.0322 43.7925 26.1119 43.2634C25.4301 42.8813 25.021 42.2346 25.021 41.5292V30.4477C25.021 26.5677 28.7026 23.3932 33.2023 23.3932H35.9635C40.4632 23.3932 44.1447 26.5677 44.1447 30.4477V41.5292C44.1447 42.2346 43.7357 42.8813 43.0539 43.2634C42.0994 43.7925 41.554 44.7037 41.554 45.6737V51.0233C41.554 52.64 43.0539 53.9333 44.9288 53.9333C46.8036 53.9333 48.3035 52.64 48.3035 51.0233V47.0258C49.9398 45.5561 50.8943 43.6161 50.8943 41.5292V30.4477C50.8943 23.3344 44.1788 17.5732 35.9635 17.5732H33.2023C24.9528 17.5732 18.2715 23.3638 18.2715 30.4477V41.5292C18.2715 43.6161 19.226 45.5561 20.8622 47.0258V54.8739C17.5215 56.373 10.2948 59.8415 3.51112 64.662C1.29537 66.2493 0 68.5714 0 71.0699V78.6241C0 80.2407 1.4999 81.534 3.37477 81.534Z" fill="white"/>
<path d="M103.766 30.5947V16.2799C103.766 7.54996 95.5504 0.466064 85.4261 0.466064H81.8468C71.7224 0.466064 63.5071 7.54996 63.5071 16.2799V30.5947C63.5071 33.1813 64.7343 35.5916 66.8478 37.3552V48.3779C62.8594 50.1415 53.1101 54.7269 44.0084 61.1936C41.3495 63.0748 39.8496 65.8378 39.8496 68.8065V78.6241C39.8496 80.2407 41.3495 81.534 43.2244 81.534H124.014C125.889 81.534 127.389 80.2407 127.389 78.6241V68.8065C127.389 65.8378 125.889 63.0748 123.23 61.1936C114.129 54.7563 104.379 50.1415 100.391 48.3779V37.3552C102.539 35.621 103.766 33.1813 103.766 30.5947ZM118.969 65.6908C120.06 66.455 120.674 67.6014 120.674 68.8065V75.7141H46.6332V68.8065C46.6332 67.6014 47.2468 66.455 48.3377 65.6908C58.3597 58.5775 69.234 53.8451 71.3134 52.9633C72.711 52.3754 73.6314 51.1115 73.6314 49.7888V35.9737C73.6314 35.0037 73.0519 34.0925 72.1315 33.5634C70.9725 32.8874 70.2907 31.7998 70.2907 30.6241V16.3093C70.2907 10.7833 75.5063 6.31542 81.8808 6.31542H85.4601C91.8688 6.31542 97.0503 10.8127 97.0503 16.3093V30.6241C97.0503 31.7998 96.3685 32.9168 95.2095 33.5634C94.255 34.0925 93.7096 35.0037 93.7096 35.9737V49.7888C93.7096 51.1409 94.63 52.3754 96.0276 52.9633C98.0729 53.8451 108.947 58.6069 118.969 65.6908Z" fill="#BBD6CC"/>
</svg>
