<svg width="196" height="80" viewBox="0 0 196 80" fill="none" xmlns="http://www.w3.org/2000/svg">
<path d="M43.08 45.42H49.88V47H40.92V45.56L47.68 34.64H41V33.06H49.84V34.5L43.08 45.42ZM65.3603 41.1C65.3603 41.4467 65.3403 41.8133 65.3003 42.2H56.5403C56.607 43.28 56.9736 44.1267 57.6403 44.74C58.3203 45.34 59.1403 45.64 60.1003 45.64C60.887 45.64 61.5403 45.46 62.0603 45.1C62.5936 44.7267 62.967 44.2333 63.1803 43.62H65.1403C64.847 44.6733 64.2603 45.5333 63.3803 46.2C62.5003 46.8533 61.407 47.18 60.1003 47.18C59.0603 47.18 58.127 46.9467 57.3003 46.48C56.487 46.0133 55.847 45.3533 55.3803 44.5C54.9136 43.6333 54.6803 42.6333 54.6803 41.5C54.6803 40.3667 54.907 39.3733 55.3603 38.52C55.8136 37.6667 56.447 37.0133 57.2603 36.56C58.087 36.0933 59.0336 35.86 60.1003 35.86C61.1403 35.86 62.0603 36.0867 62.8603 36.54C63.6603 36.9933 64.2736 37.62 64.7003 38.42C65.1403 39.2067 65.3603 40.1 65.3603 41.1ZM63.4803 40.72C63.4803 40.0267 63.327 39.4333 63.0203 38.94C62.7136 38.4333 62.2936 38.0533 61.7603 37.8C61.2403 37.5333 60.6603 37.4 60.0203 37.4C59.1003 37.4 58.3136 37.6933 57.6603 38.28C57.0203 38.8667 56.6536 39.68 56.5603 40.72H63.4803ZM76.1027 35.84C77.436 35.84 78.516 36.2467 79.3427 37.06C80.1693 37.86 80.5827 39.02 80.5827 40.54V47H78.7827V40.8C78.7827 39.7067 78.5093 38.8733 77.9627 38.3C77.416 37.7133 76.6693 37.42 75.7227 37.42C74.7627 37.42 73.996 37.72 73.4227 38.32C72.8627 38.92 72.5827 39.7933 72.5827 40.94V47H70.7627V36.04H72.5827V37.6C72.9427 37.04 73.4293 36.6067 74.0427 36.3C74.6693 35.9933 75.356 35.84 76.1027 35.84ZM85.8756 40.02C85.8756 38.66 86.1823 37.44 86.7956 36.36C87.409 35.2667 88.2423 34.4133 89.2956 33.8C90.3623 33.1867 91.5423 32.88 92.8356 32.88C94.3556 32.88 95.6823 33.2467 96.8156 33.98C97.949 34.7133 98.7756 35.7533 99.2956 37.1H97.1156C96.729 36.26 96.169 35.6133 95.4356 35.16C94.7156 34.7067 93.849 34.48 92.8356 34.48C91.8623 34.48 90.989 34.7067 90.2156 35.16C89.4423 35.6133 88.8356 36.26 88.3956 37.1C87.9556 37.9267 87.7356 38.9 87.7356 40.02C87.7356 41.1267 87.9556 42.1 88.3956 42.94C88.8356 43.7667 89.4423 44.4067 90.2156 44.86C90.989 45.3133 91.8623 45.54 92.8356 45.54C93.849 45.54 94.7156 45.32 95.4356 44.88C96.169 44.4267 96.729 43.78 97.1156 42.94H99.2956C98.7756 44.2733 97.949 45.3067 96.8156 46.04C95.6823 46.76 94.3556 47.12 92.8356 47.12C91.5423 47.12 90.3623 46.82 89.2956 46.22C88.2423 45.6067 87.409 44.76 86.7956 43.68C86.1823 42.6 85.8756 41.38 85.8756 40.02ZM104.325 41.48C104.325 40.36 104.552 39.38 105.005 38.54C105.458 37.6867 106.078 37.0267 106.865 36.56C107.665 36.0933 108.552 35.86 109.525 35.86C110.485 35.86 111.318 36.0667 112.025 36.48C112.732 36.8933 113.258 37.4133 113.605 38.04V36.04H115.445V47H113.605V44.96C113.245 45.6 112.705 46.1333 111.985 46.56C111.278 46.9733 110.452 47.18 109.505 47.18C108.532 47.18 107.652 46.94 106.865 46.46C106.078 45.98 105.458 45.3067 105.005 44.44C104.552 43.5733 104.325 42.5867 104.325 41.48ZM113.605 41.5C113.605 40.6733 113.438 39.9533 113.105 39.34C112.772 38.7267 112.318 38.26 111.745 37.94C111.185 37.6067 110.565 37.44 109.885 37.44C109.205 37.44 108.585 37.6 108.025 37.92C107.465 38.24 107.018 38.7067 106.685 39.32C106.352 39.9333 106.185 40.6533 106.185 41.48C106.185 42.32 106.352 43.0533 106.685 43.68C107.018 44.2933 107.465 44.7667 108.025 45.1C108.585 45.42 109.205 45.58 109.885 45.58C110.565 45.58 111.185 45.42 111.745 45.1C112.318 44.7667 112.772 44.2933 113.105 43.68C113.438 43.0533 113.605 42.3267 113.605 41.5ZM123.34 37.82C123.66 37.1933 124.114 36.7067 124.7 36.36C125.3 36.0133 126.027 35.84 126.88 35.84V37.72H126.4C124.36 37.72 123.34 38.8267 123.34 41.04V47H121.52V36.04H123.34V37.82ZM149.501 33.06L145.461 47H143.421L140.181 35.78L136.821 47L134.801 47.02L130.901 33.06H132.841L135.881 44.88L139.241 33.06H141.281L144.481 44.84L147.541 33.06H149.501ZM153.813 41.48C153.813 40.36 154.04 39.38 154.493 38.54C154.946 37.6867 155.566 37.0267 156.353 36.56C157.153 36.0933 158.04 35.86 159.013 35.86C159.973 35.86 160.806 36.0667 161.513 36.48C162.22 36.8933 162.746 37.4133 163.093 38.04V36.04H164.933V47H163.093V44.96C162.733 45.6 162.193 46.1333 161.473 46.56C160.766 46.9733 159.94 47.18 158.993 47.18C158.02 47.18 157.14 46.94 156.353 46.46C155.566 45.98 154.946 45.3067 154.493 44.44C154.04 43.5733 153.813 42.5867 153.813 41.48ZM163.093 41.5C163.093 40.6733 162.926 39.9533 162.593 39.34C162.26 38.7267 161.806 38.26 161.233 37.94C160.673 37.6067 160.053 37.44 159.373 37.44C158.693 37.44 158.073 37.6 157.513 37.92C156.953 38.24 156.506 38.7067 156.173 39.32C155.84 39.9333 155.673 40.6533 155.673 41.48C155.673 42.32 155.84 43.0533 156.173 43.68C156.506 44.2933 156.953 44.7667 157.513 45.1C158.073 45.42 158.693 45.58 159.373 45.58C160.053 45.58 160.673 45.42 161.233 45.1C161.806 44.7667 162.26 44.2933 162.593 43.68C162.926 43.0533 163.093 42.3267 163.093 41.5ZM174.889 47.18C174.049 47.18 173.295 47.04 172.629 46.76C171.962 46.4667 171.435 46.0667 171.049 45.56C170.662 45.04 170.449 44.4467 170.409 43.78H172.289C172.342 44.3267 172.595 44.7733 173.049 45.12C173.515 45.4667 174.122 45.64 174.869 45.64C175.562 45.64 176.109 45.4867 176.509 45.18C176.909 44.8733 177.109 44.4867 177.109 44.02C177.109 43.54 176.895 43.1867 176.469 42.96C176.042 42.72 175.382 42.4867 174.489 42.26C173.675 42.0467 173.009 41.8333 172.489 41.62C171.982 41.3933 171.542 41.0667 171.169 40.64C170.809 40.2 170.629 39.6267 170.629 38.92C170.629 38.36 170.795 37.8467 171.129 37.38C171.462 36.9133 171.935 36.5467 172.549 36.28C173.162 36 173.862 35.86 174.649 35.86C175.862 35.86 176.842 36.1667 177.589 36.78C178.335 37.3933 178.735 38.2333 178.789 39.3H176.969C176.929 38.7267 176.695 38.2667 176.269 37.92C175.855 37.5733 175.295 37.4 174.589 37.4C173.935 37.4 173.415 37.54 173.029 37.82C172.642 38.1 172.449 38.4667 172.449 38.92C172.449 39.28 172.562 39.58 172.789 39.82C173.029 40.0467 173.322 40.2333 173.669 40.38C174.029 40.5133 174.522 40.6667 175.149 40.84C175.935 41.0533 176.575 41.2667 177.069 41.48C177.562 41.68 177.982 41.9867 178.329 42.4C178.689 42.8133 178.875 43.3533 178.889 44.02C178.889 44.62 178.722 45.16 178.389 45.64C178.055 46.12 177.582 46.5 176.969 46.78C176.369 47.0467 175.675 47.18 174.889 47.18ZM189.898 35.84C190.725 35.84 191.471 36.02 192.138 36.38C192.805 36.7267 193.325 37.2533 193.698 37.96C194.085 38.6667 194.278 39.5267 194.278 40.54V47H192.478V40.8C192.478 39.7067 192.205 38.8733 191.658 38.3C191.111 37.7133 190.365 37.42 189.418 37.42C188.458 37.42 187.691 37.72 187.118 38.32C186.558 38.92 186.278 39.7933 186.278 40.94V47H184.458V32.2H186.278V37.6C186.638 37.04 187.131 36.6067 187.758 36.3C188.398 35.9933 189.111 35.84 189.898 35.84Z" fill="#343434"/>
<circle cx="13.5" cy="36.5" r="13.5" fill="#007148"/>
<circle cx="18.5" cy="40.5" r="13.5" fill="#007148"/>
</svg>
