<svg width="270" height="80" viewBox="0 0 270 80" fill="none" xmlns="http://www.w3.org/2000/svg">
<path d="M40.86 41.48C40.86 40.36 41.0867 39.38 41.54 38.54C41.9933 37.6867 42.6133 37.0267 43.4 36.56C44.2 36.0933 45.0933 35.86 46.08 35.86C46.9333 35.86 47.7267 36.06 48.46 36.46C49.1933 36.8467 49.7533 37.36 50.14 38V32.2H51.98V47H50.14V44.94C49.78 45.5933 49.2467 46.1333 48.54 46.56C47.8333 46.9733 47.0067 47.18 46.06 47.18C45.0867 47.18 44.2 46.94 43.4 46.46C42.6133 45.98 41.9933 45.3067 41.54 44.44C41.0867 43.5733 40.86 42.5867 40.86 41.48ZM50.14 41.5C50.14 40.6733 49.9733 39.9533 49.64 39.34C49.3067 38.7267 48.8533 38.26 48.28 37.94C47.72 37.6067 47.1 37.44 46.42 37.44C45.74 37.44 45.12 37.6 44.56 37.92C44 38.24 43.5533 38.7067 43.22 39.32C42.8867 39.9333 42.72 40.6533 42.72 41.48C42.72 42.32 42.8867 43.0533 43.22 43.68C43.5533 44.2933 44 44.7667 44.56 45.1C45.12 45.42 45.74 45.58 46.42 45.58C47.1 45.58 47.72 45.42 48.28 45.1C48.8533 44.7667 49.3067 44.2933 49.64 43.68C49.9733 43.0533 50.14 42.3267 50.14 41.5ZM68.0556 41.1C68.0556 41.4467 68.0356 41.8133 67.9956 42.2H59.2356C59.3023 43.28 59.669 44.1267 60.3356 44.74C61.0156 45.34 61.8356 45.64 62.7956 45.64C63.5823 45.64 64.2356 45.46 64.7556 45.1C65.289 44.7267 65.6623 44.2333 65.8756 43.62H67.8356C67.5423 44.6733 66.9556 45.5333 66.0756 46.2C65.1956 46.8533 64.1023 47.18 62.7956 47.18C61.7556 47.18 60.8223 46.9467 59.9956 46.48C59.1823 46.0133 58.5423 45.3533 58.0756 44.5C57.609 43.6333 57.3756 42.6333 57.3756 41.5C57.3756 40.3667 57.6023 39.3733 58.0556 38.52C58.509 37.6667 59.1423 37.0133 59.9556 36.56C60.7823 36.0933 61.729 35.86 62.7956 35.86C63.8356 35.86 64.7556 36.0867 65.5556 36.54C66.3556 36.9933 66.969 37.62 67.3956 38.42C67.8356 39.2067 68.0556 40.1 68.0556 41.1ZM66.1756 40.72C66.1756 40.0267 66.0223 39.4333 65.7156 38.94C65.409 38.4333 64.989 38.0533 64.4556 37.8C63.9356 37.5333 63.3556 37.4 62.7156 37.4C61.7956 37.4 61.009 37.6933 60.3556 38.28C59.7156 38.8667 59.349 39.68 59.2556 40.72H66.1756ZM75.678 37.54V44C75.678 44.5333 75.7913 44.9133 76.018 45.14C76.2446 45.3533 76.638 45.46 77.198 45.46H78.538V47H76.898C75.8846 47 75.1246 46.7667 74.618 46.3C74.1113 45.8333 73.858 45.0667 73.858 44V37.54H72.438V36.04H73.858V33.28H75.678V36.04H78.538V37.54H75.678ZM83.0631 41.48C83.0631 40.36 83.2898 39.38 83.7431 38.54C84.1965 37.6867 84.8165 37.0267 85.6031 36.56C86.4031 36.0933 87.2898 35.86 88.2631 35.86C89.2231 35.86 90.0565 36.0667 90.7631 36.48C91.4698 36.8933 91.9965 37.4133 92.3431 38.04V36.04H94.1831V47H92.3431V44.96C91.9831 45.6 91.4431 46.1333 90.7231 46.56C90.0165 46.9733 89.1898 47.18 88.2431 47.18C87.2698 47.18 86.3898 46.94 85.6031 46.46C84.8165 45.98 84.1965 45.3067 83.7431 44.44C83.2898 43.5733 83.0631 42.5867 83.0631 41.48ZM92.3431 41.5C92.3431 40.6733 92.1765 39.9533 91.8431 39.34C91.5098 38.7267 91.0565 38.26 90.4831 37.94C89.9231 37.6067 89.3031 37.44 88.6231 37.44C87.9431 37.44 87.3231 37.6 86.7631 37.92C86.2031 38.24 85.7565 38.7067 85.4231 39.32C85.0898 39.9333 84.9231 40.6533 84.9231 41.48C84.9231 42.32 85.0898 43.0533 85.4231 43.68C85.7565 44.2933 86.2031 44.7667 86.7631 45.1C87.3231 45.42 87.9431 45.58 88.6231 45.58C89.3031 45.58 89.9231 45.42 90.4831 45.1C91.0565 44.7667 91.5098 44.2933 91.8431 43.68C92.1765 43.0533 92.3431 42.3267 92.3431 41.5ZM101.199 34.26C100.852 34.26 100.559 34.14 100.319 33.9C100.079 33.66 99.9588 33.3667 99.9588 33.02C99.9588 32.6733 100.079 32.38 100.319 32.14C100.559 31.9 100.852 31.78 101.199 31.78C101.532 31.78 101.812 31.9 102.039 32.14C102.279 32.38 102.399 32.6733 102.399 33.02C102.399 33.3667 102.279 33.66 102.039 33.9C101.812 34.14 101.532 34.26 101.199 34.26ZM102.079 36.04V47H100.259V36.04H102.079ZM110.001 32.2V47H108.181V32.2H110.001ZM117.043 34.26C116.696 34.26 116.403 34.14 116.163 33.9C115.923 33.66 115.803 33.3667 115.803 33.02C115.803 32.6733 115.923 32.38 116.163 32.14C116.403 31.9 116.696 31.78 117.043 31.78C117.376 31.78 117.656 31.9 117.883 32.14C118.123 32.38 118.243 32.6733 118.243 33.02C118.243 33.3667 118.123 33.66 117.883 33.9C117.656 34.14 117.376 34.26 117.043 34.26ZM117.923 36.04V47H116.103V36.04H117.923ZM129.364 35.84C130.698 35.84 131.778 36.2467 132.604 37.06C133.431 37.86 133.844 39.02 133.844 40.54V47H132.044V40.8C132.044 39.7067 131.771 38.8733 131.224 38.3C130.678 37.7133 129.931 37.42 128.984 37.42C128.024 37.42 127.258 37.72 126.684 38.32C126.124 38.92 125.844 39.7933 125.844 40.94V47H124.024V36.04H125.844V37.6C126.204 37.04 126.691 36.6067 127.304 36.3C127.931 35.9933 128.618 35.84 129.364 35.84ZM144.337 35.86C145.284 35.86 146.111 36.0667 146.817 36.48C147.537 36.8933 148.071 37.4133 148.417 38.04V36.04H150.257V47.24C150.257 48.24 150.044 49.1267 149.617 49.9C149.191 50.6867 148.577 51.3 147.777 51.74C146.991 52.18 146.071 52.4 145.017 52.4C143.577 52.4 142.377 52.06 141.417 51.38C140.457 50.7 139.891 49.7733 139.717 48.6H141.517C141.717 49.2667 142.131 49.8 142.757 50.2C143.384 50.6133 144.137 50.82 145.017 50.82C146.017 50.82 146.831 50.5067 147.457 49.88C148.097 49.2533 148.417 48.3733 148.417 47.24V44.94C148.057 45.58 147.524 46.1133 146.817 46.54C146.111 46.9667 145.284 47.18 144.337 47.18C143.364 47.18 142.477 46.94 141.677 46.46C140.891 45.98 140.271 45.3067 139.817 44.44C139.364 43.5733 139.137 42.5867 139.137 41.48C139.137 40.36 139.364 39.38 139.817 38.54C140.271 37.6867 140.891 37.0267 141.677 36.56C142.477 36.0933 143.364 35.86 144.337 35.86ZM148.417 41.5C148.417 40.6733 148.251 39.9533 147.917 39.34C147.584 38.7267 147.131 38.26 146.557 37.94C145.997 37.6067 145.377 37.44 144.697 37.44C144.017 37.44 143.397 37.6 142.837 37.92C142.277 38.24 141.831 38.7067 141.497 39.32C141.164 39.9333 140.997 40.6533 140.997 41.48C140.997 42.32 141.164 43.0533 141.497 43.68C141.831 44.2933 142.277 44.7667 142.837 45.1C143.397 45.42 144.017 45.58 144.697 45.58C145.377 45.58 145.997 45.42 146.557 45.1C147.131 44.7667 147.584 44.2933 147.917 43.68C148.251 43.0533 148.417 42.3267 148.417 41.5ZM155.653 41.5C155.653 40.3667 155.88 39.38 156.333 38.54C156.786 37.6867 157.413 37.0267 158.213 36.56C159.026 36.0933 159.953 35.86 160.993 35.86C162.34 35.86 163.446 36.1867 164.313 36.84C165.193 37.4933 165.773 38.4 166.053 39.56H164.093C163.906 38.8933 163.54 38.3667 162.993 37.98C162.46 37.5933 161.793 37.4 160.993 37.4C159.953 37.4 159.113 37.76 158.473 38.48C157.833 39.1867 157.513 40.1933 157.513 41.5C157.513 42.82 157.833 43.84 158.473 44.56C159.113 45.28 159.953 45.64 160.993 45.64C161.793 45.64 162.46 45.4533 162.993 45.08C163.526 44.7067 163.893 44.1733 164.093 43.48H166.053C165.76 44.6 165.173 45.5 164.293 46.18C163.413 46.8467 162.313 47.18 160.993 47.18C159.953 47.18 159.026 46.9467 158.213 46.48C157.413 46.0133 156.786 45.3533 156.333 44.5C155.88 43.6467 155.653 42.6467 155.653 41.5ZM176.261 47.18C175.235 47.18 174.301 46.9467 173.461 46.48C172.635 46.0133 171.981 45.3533 171.501 44.5C171.035 43.6333 170.801 42.6333 170.801 41.5C170.801 40.38 171.041 39.3933 171.521 38.54C172.015 37.6733 172.681 37.0133 173.521 36.56C174.361 36.0933 175.301 35.86 176.341 35.86C177.381 35.86 178.321 36.0933 179.161 36.56C180.001 37.0133 180.661 37.6667 181.141 38.52C181.635 39.3733 181.881 40.3667 181.881 41.5C181.881 42.6333 181.628 43.6333 181.121 44.5C180.628 45.3533 179.955 46.0133 179.101 46.48C178.248 46.9467 177.301 47.18 176.261 47.18ZM176.261 45.58C176.915 45.58 177.528 45.4267 178.101 45.12C178.675 44.8133 179.135 44.3533 179.481 43.74C179.841 43.1267 180.021 42.38 180.021 41.5C180.021 40.62 179.848 39.8733 179.501 39.26C179.155 38.6467 178.701 38.1933 178.141 37.9C177.581 37.5933 176.975 37.44 176.321 37.44C175.655 37.44 175.041 37.5933 174.481 37.9C173.935 38.1933 173.495 38.6467 173.161 39.26C172.828 39.8733 172.661 40.62 172.661 41.5C172.661 42.3933 172.821 43.1467 173.141 43.76C173.475 44.3733 173.915 44.8333 174.461 45.14C175.008 45.4333 175.608 45.58 176.261 45.58ZM200.454 35.84C201.308 35.84 202.068 36.02 202.734 36.38C203.401 36.7267 203.928 37.2533 204.314 37.96C204.701 38.6667 204.894 39.5267 204.894 40.54V47H203.094V40.8C203.094 39.7067 202.821 38.8733 202.274 38.3C201.741 37.7133 201.014 37.42 200.094 37.42C199.148 37.42 198.394 37.7267 197.834 38.34C197.274 38.94 196.994 39.8133 196.994 40.96V47H195.194V40.8C195.194 39.7067 194.921 38.8733 194.374 38.3C193.841 37.7133 193.114 37.42 192.194 37.42C191.248 37.42 190.494 37.7267 189.934 38.34C189.374 38.94 189.094 39.8133 189.094 40.96V47H187.274V36.04H189.094V37.62C189.454 37.0467 189.934 36.6067 190.534 36.3C191.148 35.9933 191.821 35.84 192.554 35.84C193.474 35.84 194.288 36.0467 194.994 36.46C195.701 36.8733 196.228 37.48 196.574 38.28C196.881 37.5067 197.388 36.9067 198.094 36.48C198.801 36.0533 199.588 35.84 200.454 35.84ZM212.7 38.06C213.06 37.4333 213.593 36.9133 214.3 36.5C215.02 36.0733 215.853 35.86 216.8 35.86C217.773 35.86 218.653 36.0933 219.44 36.56C220.24 37.0267 220.867 37.6867 221.32 38.54C221.773 39.38 222 40.36 222 41.48C222 42.5867 221.773 43.5733 221.32 44.44C220.867 45.3067 220.24 45.98 219.44 46.46C218.653 46.94 217.773 47.18 216.8 47.18C215.867 47.18 215.04 46.9733 214.32 46.56C213.613 46.1333 213.073 45.6067 212.7 44.98V52.2H210.88V36.04H212.7V38.06ZM220.14 41.48C220.14 40.6533 219.973 39.9333 219.64 39.32C219.307 38.7067 218.853 38.24 218.28 37.92C217.72 37.6 217.1 37.44 216.42 37.44C215.753 37.44 215.133 37.6067 214.56 37.94C214 38.26 213.547 38.7333 213.2 39.36C212.867 39.9733 212.7 40.6867 212.7 41.5C212.7 42.3267 212.867 43.0533 213.2 43.68C213.547 44.2933 214 44.7667 214.56 45.1C215.133 45.42 215.753 45.58 216.42 45.58C217.1 45.58 217.72 45.42 218.28 45.1C218.853 44.7667 219.307 44.2933 219.64 43.68C219.973 43.0533 220.14 42.32 220.14 41.48ZM226.715 41.48C226.715 40.36 226.942 39.38 227.395 38.54C227.849 37.6867 228.469 37.0267 229.255 36.56C230.055 36.0933 230.942 35.86 231.915 35.86C232.875 35.86 233.709 36.0667 234.415 36.48C235.122 36.8933 235.649 37.4133 235.995 38.04V36.04H237.835V47H235.995V44.96C235.635 45.6 235.095 46.1333 234.375 46.56C233.669 46.9733 232.842 47.18 231.895 47.18C230.922 47.18 230.042 46.94 229.255 46.46C228.469 45.98 227.849 45.3067 227.395 44.44C226.942 43.5733 226.715 42.5867 226.715 41.48ZM235.995 41.5C235.995 40.6733 235.829 39.9533 235.495 39.34C235.162 38.7267 234.709 38.26 234.135 37.94C233.575 37.6067 232.955 37.44 232.275 37.44C231.595 37.44 230.975 37.6 230.415 37.92C229.855 38.24 229.409 38.7067 229.075 39.32C228.742 39.9333 228.575 40.6533 228.575 41.48C228.575 42.32 228.742 43.0533 229.075 43.68C229.409 44.2933 229.855 44.7667 230.415 45.1C230.975 45.42 231.595 45.58 232.275 45.58C232.955 45.58 233.575 45.42 234.135 45.1C234.709 44.7667 235.162 44.2933 235.495 43.68C235.829 43.0533 235.995 42.3267 235.995 41.5ZM249.251 35.84C250.584 35.84 251.664 36.2467 252.491 37.06C253.318 37.86 253.731 39.02 253.731 40.54V47H251.931V40.8C251.931 39.7067 251.658 38.8733 251.111 38.3C250.564 37.7133 249.818 37.42 248.871 37.42C247.911 37.42 247.144 37.72 246.571 38.32C246.011 38.92 245.731 39.7933 245.731 40.94V47H243.911V36.04H245.731V37.6C246.091 37.04 246.578 36.6067 247.191 36.3C247.818 35.9933 248.504 35.84 249.251 35.84ZM269.144 36.04L262.544 52.16H260.664L262.824 46.88L258.404 36.04H260.424L263.864 44.92L267.264 36.04H269.144Z" fill="white"/>
<circle cx="13.5" cy="36.5" r="13.5" fill="white"/>
<circle cx="18.5" cy="40.5" r="13.5" fill="white"/>
</svg>
