<svg width="32" height="20" viewBox="0 0 32 20" fill="none" xmlns="http://www.w3.org/2000/svg">
<path d="M21.25 9.5625C21.25 10.6132 20.9384 11.6403 20.3547 12.514C19.7709 13.3876 18.9412 14.0685 17.9705 14.4706C16.9998 14.8727 15.9316 14.9779 14.9011 14.7729C13.8706 14.5679 12.924 14.062 12.181 13.319C11.438 12.576 10.9321 11.6294 10.7271 10.5989C10.5221 9.56839 10.6273 8.50023 11.0294 7.52949C11.4315 6.55876 12.1124 5.72906 12.986 5.14532C13.8597 4.56157 14.8868 4.25 15.9375 4.25C17.3465 4.25 18.6977 4.80971 19.694 5.80599C20.6903 6.80228 21.25 8.15354 21.25 9.5625ZM31.875 1.0625V18.0625C31.875 18.3443 31.7631 18.6145 31.5638 18.8138C31.3645 19.0131 31.0943 19.125 30.8125 19.125H1.0625C0.780707 19.125 0.510456 19.0131 0.311199 18.8138C0.111942 18.6145 0 18.3443 0 18.0625V1.0625C0 0.780707 0.111942 0.510457 0.311199 0.311199C0.510456 0.111942 0.780707 0 1.0625 0H30.8125C31.0943 0 31.3645 0.111942 31.5638 0.311199C31.7631 0.510457 31.875 0.780707 31.875 1.0625ZM29.75 7.21836C28.5435 6.86163 27.4455 6.20873 26.5559 5.31912C25.6663 4.42951 25.0134 3.33146 24.6566 2.125H7.21836C6.86163 3.33146 6.20873 4.42951 5.31912 5.31912C4.42951 6.20873 3.33146 6.86163 2.125 7.21836V11.9066C3.33146 12.2634 4.42951 12.9163 5.31912 13.8059C6.20873 14.6955 6.86163 15.7935 7.21836 17H24.6566C25.0134 15.7935 25.6663 14.6955 26.5559 13.8059C27.4455 12.9163 28.5435 12.2634 29.75 11.9066V7.21836Z" fill="#007148"/>
</svg>
