<svg width="42" height="44" viewBox="0 0 42 44" fill="none" xmlns="http://www.w3.org/2000/svg">
<path d="M30.1876 5.33345C34.2292 5.33345 37.4792 8.60429 37.4792 12.6251C37.4792 16.5626 34.3543 19.771 30.4584 19.9168C30.2785 19.8959 30.0967 19.8959 29.9167 19.9168M34.2084 38.6668C35.7084 38.3543 37.1251 37.7501 38.2917 36.8543C41.5417 34.4168 41.5417 30.396 38.2917 27.9585C37.1459 27.0835 35.7501 26.5001 34.2709 26.1668M15.0834 19.646C14.8751 19.6251 14.6251 19.6251 14.3959 19.646C12.0047 19.5648 9.73892 18.556 8.07848 16.8334C6.41803 15.1107 5.49329 12.8094 5.50008 10.4168C5.50008 5.31262 9.62508 1.16679 14.7501 1.16679C17.2006 1.12259 19.5683 2.05365 21.3323 3.75515C23.0963 5.45665 24.1121 7.78921 24.1563 10.2397C24.2005 12.6902 23.2695 15.0579 21.568 16.8219C19.8665 18.5859 17.5339 19.6018 15.0834 19.646ZM4.66675 27.3335C-0.374919 30.7085 -0.374919 36.2085 4.66675 39.5626C10.3959 43.396 19.7917 43.396 25.5209 39.5626C30.5626 36.1876 30.5626 30.6876 25.5209 27.3335C19.8126 23.521 10.4167 23.521 4.66675 27.3335V27.3335Z" stroke="#007148" stroke-width="1.5" stroke-linecap="round" stroke-linejoin="round"/>
</svg>
